<?xml version="1.0" encoding="utf-8"?>
<!-- Generator: Adobe Illustrator 16.0.0, SVG Export Plug-In . SVG Version: 6.00 Build 0)  -->
<!DOCTYPE svg PUBLIC "-//W3C//DTD SVG 1.1//EN" "http://www.w3.org/Graphics/SVG/1.1/DTD/svg11.dtd">
<svg version="1.1" id="Capa_1" xmlns="http://www.w3.org/2000/svg" xmlns:xlink="http://www.w3.org/1999/xlink" x="0px" y="0px"
	 width="512px" height="512px" viewBox="0 0 512 512" enable-background="new 0 0 512 512" xml:space="preserve">
<g id="Capa_1_1_">
</g>
<g>
	<path fill="#333333" d="M99.61,5.15c0.14-1.54,0.49-3.05,1.12-4.46c3.78,8.75,7.43,17.67,13.03,25.47
		c7.17,10.73,17.19,19.62,28.95,25.01c15.66,7.39,33.26,8.43,50.29,8.97c5.36-0.11,10.74,0.25,16.09-0.11
		c5.46-7.95,89.25-7.05,93.771,0.14c19.488-0.08,39.51,0.37,58.26-5.78c14.88-4.73,27.96-14.67,36.68-27.6
		c5.82-7.97,9.61-17.12,13.49-26.12c1.42,3.6,1.35,7.56,1.74,11.36c0.89,23.24-6.54,47.29-22.54,64.49
		c-10.05,10.81-23.05,18.58-36.892,23.54c9.45,5.1,18.49,11.26,25.54,19.45c18.07-8.63,37.642-15.26,57.892-15.13
		c20.398,0.2,41.278,1.63,60.5,9c5.05,2.32,11.27,4.9,13.238,10.55c-0.13,9.63-5.068,18.52-10.64,26.1
		c-9.8,13.78-25.47,23.12-42.188,25.49c-19.2,2.83-38.62-2.4-55.932-10.5c4.74,16.67,7.45,33.83,10.01,50.94
		c1.03,38.25-9.908,76.261-28.63,109.46c-5.238,9.6-11.29,18.73-17.01,28.051c-6.35,10.34-13.58,20.289-17.99,31.689
		c-2.1,5.73-3.8,12.439-0.59,18.109c6.65,13.229,8.82,28.109,9.38,42.749c0.17,7.271,1.03,14.762-1.38,21.78
		c-4,12.37-14.26,21.54-25.29,27.771c-19.04,10.68-41.029,14.238-62.51,15.91c-7.96-0.78-15.97-0.592-23.94-0.142
		c-20.58-1.3-41.51-4.82-59.99-14.38c-10.35-5.4-20.08-13.02-25.55-23.55c-2.95-5.65-4.25-12.07-3.99-18.42
		c0.38-16.62,1.29-33.86,8.55-49.132c1.43-3.469,3.52-7.01,2.87-10.93c-0.95-9.57-5.96-18.07-10.73-26.199
		c-12.8-20.76-26.82-40.939-36.64-63.371c-12.51-27.618-19.03-57.958-18.72-88.29c2.56-17.49,5.32-35.03,10.14-52.07
		c-16.15,7.59-34.08,12.63-52.06,10.97c-14.84-1.18-29.1-7.83-39.66-18.31c-7.5-7.97-13.98-17.39-16.51-28.18
		c-0.44-2.64-1.32-5.8,0.62-8.06c4.66-5.67,11.93-8.09,18.64-10.4c18.12-5.34,37.14-6.68,55.95-6.62
		c19.59,0.25,38.41,6.85,55.94,15.09c6.67-7.73,15.08-13.83,24.09-18.56c2.03-0.72,0-1.6-0.97-1.85
		c-19.76-7.19-37.32-21.29-46.91-40.2C100.75,42.46,97.31,23.45,99.61,5.15z"/>
	<path fill="#FEFEFE" d="M221.15,112.562c12.37-3.259,25.07-5.464,37.831-5.058c14.279,0.427,28.359,3.708,42.039,8.064
		c14.28,4.828,28.25,11.016,41.021,19.563c5.54,4.049,7.63,11.521,9.31,18.203c0.543,2.713,1.029,5.441,1.461,8.18
		c0.433,2.739,0.808,5.493,1.113,8.26C362.5,204.5,325.5,227.5,310.029,254.17c-1.835,2.141-3.61,4.333-5.329,6.592
		c-1.72,2.26-3.383,4.584-4.98,6.989c-1.654,2.863-4.364,15.91-5.13,19.113c-4.311,24.666-7.34,51.055,0.66,75.227
		c3.6,11.763,9.75,22.283,14.52,33.486c6.98,16.205,18.33,30.02,22.99,47.421c2.29,7.846,2.55,16.896-1.25,24.249
		c-4.67-8.997-15.8-10.939-24.029-7.264c-0.149,8.063,2.329,17.697,9.579,21.317c-9.438,6.178-20.55,8.054-31.249,9.842
		c-15.851,2.086-31.891,3.271-47.811,1.317c-14.62-1.646-30-3.018-43.02-11.137c7.26-3.632,9.75-13.311,9.55-21.396
		c-8.43-3.729-19.23-1.403-24.32,7.329c-2.61-6.691-3.5-14.286-1.64-21.341c3.12-14.691,11.54-26.947,18.44-39.687
		c4.44-8.131,7.82-16.865,11.99-25.147c6.27-12.63,11.13-26.366,12.25-40.796c1.82-21.361-1.55-42.758-5.79-63.561
		c-0.695-4.209-2.373-8.052-4.627-11.482c-2.254-3.432-5.087-6.452-8.087-9.023C178.5,233.5,159.5,204.5,157.946,170.874
		c0.304-3.227,0.734-6.452,1.26-9.66s1.148-6.4,1.875-9.569c1.21-4.762,2.83-9.535,5.68-13.43c2.7-3.5,6.72-5.167,10.22-7.494
		C190.92,122.646,205.85,116.699,221.15,112.562z"/>
	<path fill="#FEFEFE" d="M136.914,206.358c3.305,2.069,5.986,5.649,7.684,9.405c1.877,4.742-0.989,11.359-5.909,12.252
		c-11.985,1.156-22.982-9.045-21.188-21.566c0.449-3.13,4.027-5.812,8.617-4.875C129.509,201.911,133.374,203.533,136.914,206.358z"
		/>
	<path fill="#FEFEFE" d="M372.594,208.987c2.24-3.19,5.955-5.681,9.797-7.179c4.834-1.622,11.291,1.587,11.924,6.547
		c0.523,12.03-10.243,22.475-22.651,20.022c-3.104-0.612-5.592-4.328-4.415-8.86C367.763,216.147,369.586,212.373,372.594,208.987z"
		/>
</g>
</svg>
